<?xml version="1.0" encoding="UTF-8"?>
<svg version="1.1" xmlns="http://www.w3.org/2000/svg" width="108" height="52">
<path d="M0 0 C0.901241 -0.00700928 1.80248199 -0.01401855 2.73103333 -0.02124023 C5.70967432 -0.03884332 8.68736499 -0.02718919 11.66601562 -0.01367188 C13.73580101 -0.01636612 15.80558516 -0.02024798 17.87536621 -0.02526855 C22.2130946 -0.03116674 26.5504935 -0.02259016 30.88818359 -0.00390625 C36.45035782 0.01888329 42.01176005 0.00576195 47.57390594 -0.01819611 C51.84785791 -0.0326453 56.12162664 -0.02805209 60.39558411 -0.01768494 C62.44651887 -0.01501523 64.49747024 -0.01829596 66.54838562 -0.02760315 C69.41421624 -0.03775412 72.27879403 -0.02228788 75.14453125 0 C76.41796135 -0.01214539 76.41796135 -0.01214539 77.71711731 -0.02453613 C81.50224955 0.03004295 83.45916084 0.08130038 86.60583496 2.32043457 C88.74425164 5.52441041 88.50433385 8.56318992 88.32226562 12.26757812 C88.30421875 12.96496094 88.28617187 13.66234375 88.26757812 14.38085938 C88.22065116 16.09369352 88.14891167 17.80581636 88.07226562 19.51757812 C90.38226563 19.51757812 92.69226563 19.51757812 95.07226562 19.51757812 C95.07226562 24.13757813 95.07226562 28.75757813 95.07226562 33.51757812 C92.76226562 33.51757812 90.45226562 33.51757812 88.07226562 33.51757812 C88.11867188 34.55398437 88.16507812 35.59039062 88.21289062 36.65820312 C88.25041837 38.02796591 88.28681747 39.39775994 88.32226562 40.76757812 C88.35578125 41.44949219 88.38929687 42.13140625 88.42382812 42.83398438 C88.48489557 45.97895757 88.3719357 48.0685844 86.60583496 50.71472168 C82.87166896 53.37190779 79.6255787 53.0778944 75.14453125 53.03515625 C74.24329025 53.04216553 73.34204926 53.0491748 72.41349792 53.05639648 C69.43485693 53.07399957 66.45716626 53.06234544 63.47851562 53.04882812 C61.40873024 53.05152237 59.33894609 53.05540423 57.26916504 53.0604248 C52.93143665 53.06632299 48.59403775 53.05774641 44.25634766 53.0390625 C38.69417343 53.01627296 33.1327712 53.0293943 27.57062531 53.05335236 C23.29667334 53.06780155 19.02290461 53.06320834 14.74894714 53.05284119 C12.69801238 53.05017148 10.64706101 53.05345221 8.59614563 53.0627594 C5.73031501 53.07291037 2.86573722 53.05744413 0 53.03515625 C-0.8489534 53.04325317 -1.6979068 53.0513501 -2.57258606 53.05969238 C-6.32257463 53.00562005 -8.3155737 52.9430727 -11.45336914 50.76208496 C-13.08821174 48.27327466 -13.43297556 47.03688884 -13.4453125 44.08789062 C-13.45792114 43.22019043 -13.47052979 42.35249023 -13.48352051 41.45849609 C-13.47542358 40.52924316 -13.46732666 39.59999023 -13.45898438 38.64257812 C-13.46281128 37.68109863 -13.46663818 36.71961914 -13.47058105 35.72900391 C-13.4733004 33.69823152 -13.46593767 31.66742413 -13.44921875 29.63671875 C-13.42780962 26.52850242 -13.44901984 23.42259757 -13.47460938 20.31445312 C-13.4719661 18.34048969 -13.46684114 16.36652769 -13.45898438 14.39257812 C-13.4670813 13.4633252 -13.47517822 12.53407227 -13.48352051 11.57666016 C-13.47091187 10.70895996 -13.45830322 9.84125977 -13.4453125 8.94726562 C-13.44213013 8.18655762 -13.43894775 7.42584961 -13.43566895 6.64208984 C-11.74441365 -0.43183642 -6.01888911 -0.05740537 0 0 Z M-5.92773438 5.51757812 C-5.92773438 19.37757812 -5.92773438 33.23757812 -5.92773438 47.51757812 C22.78226563 47.51757812 51.49226563 47.51757812 81.07226562 47.51757812 C81.07226562 33.65757813 81.07226562 19.79757812 81.07226562 5.51757812 C52.36226562 5.51757812 23.65226562 5.51757812 -5.92773438 5.51757812 Z " fill="#FFFFFF" transform="translate(12.927734375,-0.517578125)"/>
<path d="M0 0 C30.03 0 60.06 0 91 0 C91 15.18 91 30.36 91 46 C60.97 46 30.94 46 0 46 C0 30.82 0 15.64 0 0 Z M2 2 C2 15.86 2 29.72 2 44 C30.71 44 59.42 44 89 44 C89 30.14 89 16.28 89 2 C60.29 2 31.58 2 2 2 Z " fill="#393837" transform="translate(5,3)"/>
</svg>
